<svg xmlns="http://www.w3.org/2000/svg" xmlns:xlink="http://www.w3.org/1999/xlink" width="44" height="30" viewBox="0 0 44 30"><defs><path id="ogt9a" d="M38.23 40.158a12.348 12.348 0 0 1-1.64 3.546 13.363 13.363 0 0 1-2.936-2.573c.173-.281.324-.605.475-.93a10.158 10.158 0 0 0 3.216-.778c.259.26.56.519.885.735zm3.172 1.402a8.51 8.51 0 0 1-3.15-1.425c.107-.388.215-.798.28-1.187 0-.043.021-.086.021-.13v-.021l-.021-.022v-.021a9.021 9.021 0 0 1-1.209.604 9.249 9.249 0 0 1-2.352-3.647 9.56 9.56 0 0 1-.454-2.18 8.163 8.163 0 0 1 .13-2.288c.194-1.014.54-1.986 1.079-2.87l-.022-.022v-.022c-.841-1.014-1.856-1.877-2.956-2.59v.022h-.022a12.898 12.898 0 0 0-1.662 3.583h.022v.021a8.982 8.982 0 0 1 3.065 3.864 8.718 8.718 0 0 1 .518 5.028 9.868 9.868 0 0 1-.583 1.921c-.389.022-.777.043-1.166.022v.021H32.9c.216.324.453.626.69.907a9.758 9.758 0 0 1-1.143 1.532A8.039 8.039 0 0 1 31 43.912v.043c.733.13 1.51.173 2.266.173h.518a14.457 14.457 0 0 0 2.719-.367h.043l.022-.022h.021a14.311 14.311 0 0 0 4.792-2.136l.021-.043z"/><path id="ogt9c" d="M33.61 41.129c-.238-.303-.476-.605-.692-.907a10.174 10.174 0 0 1-5.071-1.554 1.953 1.953 0 0 0-2.677.626 1.953 1.953 0 0 0 .626 2.676c1.64 1.036 3.432 1.662 5.223 1.964a8.71 8.71 0 0 0 2.59-2.805z"/><path id="ogt9e" d="M45.355 37.436a1.953 1.953 0 0 0-.626-2.676 1.953 1.953 0 0 0-2.676.626 10.343 10.343 0 0 1-3.496 3.41c0 .065-.022.108-.022.173-.065.41-.172.798-.28 1.187a8.542 8.542 0 0 0 3.15 1.424 14.5 14.5 0 0 0 3.95-4.144z"/><path id="ogt9g" d="M36.505 43.745c-1.791.41-3.647.496-5.482.194-1.899 1.316-4.294 1.92-6.733 1.468-4.835-.907-8.05-5.569-7.144-10.403.518-2.828 2.396-5.223 4.986-6.454a8.852 8.852 0 0 1 5.417-.69 8.909 8.909 0 0 1 3.56 1.51 12.898 12.898 0 0 1 1.663-3.582 12.725 12.725 0 0 0-4.511-1.77 12.74 12.74 0 0 0-7.791.993 12.87 12.87 0 0 0-7.166 9.259c-1.294 6.95 3.324 13.662 10.274 14.957 5.2.97 10.251-1.36 13.014-5.504-.022.022-.044.022-.087.022z"/><path id="ogt9i" d="M37.326 39.403c.41-.173.82-.388 1.23-.626.67-3.863-.475-7.619-2.827-10.424a8.985 8.985 0 0 0-1.08 2.892c-.582 3.108.54 6.15 2.677 8.158z"/><path id="ogt9k" d="M32.92 40.22c.388.02.777 0 1.187-.022a9.265 9.265 0 0 0 .604-1.943 8.948 8.948 0 0 0-3.582-8.892c-.108.389-.216.777-.281 1.187a12.687 12.687 0 0 0 2.072 9.67z"/><path id="ogt9m" d="M45.758 20.284a12.74 12.74 0 0 0-7.79.993 13.074 13.074 0 0 0-5.224 4.51 13.082 13.082 0 0 1 2.957 2.59 9.094 9.094 0 0 1 3.906-3.582 8.852 8.852 0 0 1 5.418-.691c4.834.906 8.05 5.568 7.143 10.403-.906 4.834-5.568 8.05-10.402 7.144a2.51 2.51 0 0 1-.389-.087 13.954 13.954 0 0 1-4.813 2.137 12.725 12.725 0 0 0 4.511 1.77c6.95 1.295 13.662-3.324 14.956-10.273 1.295-6.929-3.323-13.64-10.273-14.914z"/><path id="ogt9o" d="M37.325 39.405a10.479 10.479 0 0 1-3.238.799c-.15.324-.302.647-.474.95a12.572 12.572 0 0 0 2.956 2.59 13.593 13.593 0 0 0 1.662-3.583c-.302-.238-.604-.497-.906-.756z"/><linearGradient id="ogt9b" x1="28.26" x2="42.05" y1="32.76" y2="40.72" gradientUnits="userSpaceOnUse"><stop offset=".03" stop-color="#ee2321"/><stop offset="1" stop-color="#cb121a"/></linearGradient><linearGradient id="ogt9d" x1="14.62" x2="47.43" y1="32.59" y2="51.54" gradientUnits="userSpaceOnUse"><stop offset="0" stop-color="#ff7824"/><stop offset="1" stop-color="#d90909"/></linearGradient><linearGradient id="ogt9f" x1="20.45" x2="50.68" y1="25.31" y2="42.78" gradientUnits="userSpaceOnUse"><stop offset="0" stop-color="#ff7824"/><stop offset="1" stop-color="#d90909"/></linearGradient><linearGradient id="ogt9h" x1="21.37" x2="27.52" y1="28.06" y2="44.96" gradientUnits="userSpaceOnUse"><stop offset="0" stop-color="#f52"/><stop offset="1" stop-color="#d11"/></linearGradient><linearGradient id="ogt9j" x1="22.49" x2="56.24" y1="25.78" y2="45.27" gradientUnits="userSpaceOnUse"><stop offset="0" stop-color="#f52"/><stop offset="1" stop-color="#d11"/></linearGradient><linearGradient id="ogt9l" x1="22.85" x2="62.15" y1="29.49" y2="52.18" gradientUnits="userSpaceOnUse"><stop offset="0" stop-color="#ff7824"/><stop offset="1" stop-color="#d90909"/></linearGradient><linearGradient id="ogt9n" x1="41.51" x2="47.66" y1="23.69" y2="40.59" gradientUnits="userSpaceOnUse"><stop offset="0" stop-color="#f52"/><stop offset="1" stop-color="#d11"/></linearGradient></defs><g><g transform="translate(-13 -20)"><g><g><use fill="url(#ogt9b)" xlink:href="#ogt9a"/></g><g><use fill="url(#ogt9d)" xlink:href="#ogt9c"/></g><g><use fill="url(#ogt9f)" xlink:href="#ogt9e"/></g><g><use fill="url(#ogt9h)" xlink:href="#ogt9g"/></g><g><use fill="url(#ogt9j)" xlink:href="#ogt9i"/></g><g><use fill="url(#ogt9l)" xlink:href="#ogt9k"/></g><g><use fill="url(#ogt9n)" xlink:href="#ogt9m"/></g><g><use fill="#d00" xlink:href="#ogt9o"/></g></g></g></g></svg>